<?xml version="1.0" encoding="utf-8"?>
<!-- Generator: Adobe Illustrator 24.0.0, SVG Export Plug-In . SVG Version: 6.00 Build 0)  -->
<svg version="1.1" id="圖層_1" xmlns="http://www.w3.org/2000/svg" xmlns:xlink="http://www.w3.org/1999/xlink" x="0px" y="0px"
	 viewBox="0 0 65 65" style="enable-background:new 0 0 65 65;" xml:space="preserve">
<style type="text/css">
	.st0{fill:#7F0019;stroke:#FFFFFF;stroke-width:0.5;stroke-miterlimit:10;}
</style>
<path class="st0" d="M17.4,6.6l8.2,10.6l0.1,0.2c0.4,0.5,0.7,1.1,0.9,1.7c0.2,0.7,0.2,1.4,0.1,2.1c-0.1,0.7-0.3,1.3-0.7,2l-0.1,0.1
	c-0.3,0.5-0.8,1-1.3,1.4l-0.2,0.1l-4,2.9c-0.2,0.6-0.5,1.9,0.5,3.4c1.8,2.5,3.7,4.9,5.9,7l0,0l0,0c2.2,2.2,4.5,4.1,7.1,5.9
	c1.6,1.1,2.8,0.8,3.4,0.6l3-4.1h0c0.4-0.6,0.9-1.1,1.6-1.4h0c0.6-0.3,1.3-0.6,2-0.7h0.1c0.7-0.1,1.4-0.1,2,0.1l0.1,0
	c0.6,0.2,1.2,0.5,1.7,0.9l0,0l10.6,8.2l0.2,0.1c0.5,0.5,0.9,1,1.3,1.6h0c0.3,0.6,0.5,1.4,0.5,2.2c0,0.8-0.1,1.5-0.4,2.2
	c-0.3,0.7-0.7,1.3-1.3,1.9c-0.7,0.6-1.5,1.3-2.5,1.9l-0.2,0.1c-0.9,0.6-2.1,1.1-3.4,1.6c-5.8,2-12,1.6-18-0.4
	c-6.3-2.1-12.4-6-17.4-11c-5-5-8.9-11-11-17.3c-2-6-2.3-12.2-0.4-18c0.4-1.4,1-2.6,1.6-3.6h0h0c0.6-1,1.3-1.9,1.9-2.5
	c0.5-0.6,1.2-1,1.9-1.3l0.2-0.1c0.6-0.2,1.3-0.3,2-0.3c0.8,0,1.5,0.2,2.2,0.6l0.1,0.1L17.4,6.6L17.4,6.6z M22.2,19.8L22.2,19.8
	L14,9.2l0,0C13.9,9.1,13.8,9,13.7,9l-0.1,0c-0.1-0.1-0.2-0.1-0.4-0.1c-0.1,0-0.2,0-0.4,0l-0.1,0c-0.1,0-0.2,0.1-0.4,0.2
	c-0.4,0.5-0.9,1.1-1.4,1.8c-0.5,0.7-0.9,1.6-1.2,2.7c-1.6,4.9-1.3,10.2,0.4,15.3c1.9,5.7,5.5,11.1,10,15.6c4.5,4.5,10,8.1,15.6,10
	c5.2,1.7,10.4,2,15.3,0.4c1-0.3,1.9-0.7,2.6-1.2l0.1,0c0.7-0.4,1.3-0.9,1.8-1.4c0.1-0.1,0.2-0.2,0.2-0.3v0l0,0c0-0.1,0.1-0.3,0-0.4
	c0-0.2,0-0.3-0.1-0.4l0,0c0-0.1-0.1-0.2-0.2-0.3l-0.1,0l-10.6-8.2h0l0,0c-0.1-0.1-0.2-0.1-0.3-0.2h-0.1c-0.1,0-0.2,0-0.4,0h0
	c-0.1,0-0.2,0.1-0.4,0.1l0,0l0,0c-0.1,0.1-0.2,0.2-0.3,0.3h0l-3.2,4.4c-0.2,0.3-0.4,0.5-0.7,0.7c0,0-3.8,2.7-8.4-0.5
	c-2.8-2-5.3-4.1-7.6-6.4v0c-2.3-2.3-4.5-4.9-6.4-7.6c-3.2-4.6-0.5-8.4-0.5-8.4c0.2-0.2,0.3-0.5,0.6-0.6l4.4-3.2l0.2-0.1
	c0.1-0.1,0.2-0.2,0.2-0.2l0-0.1c0.1-0.1,0.1-0.2,0.1-0.4c0-0.1,0-0.3,0-0.4C22.4,20.1,22.4,20,22.2,19.8L22.2,19.8L22.2,19.8z
	 M17.4,6.6L17.4,6.6L17.4,6.6L17.4,6.6L17.4,6.6z M17.4,6.6L17.4,6.6L17.4,6.6L17.4,6.6L17.4,6.6z"/>
</svg>
